<svg xmlns="http://www.w3.org/2000/svg" xmlns:xlink="http://www.w3.org/1999/xlink" fill="#000000" height="800px" width="800px" id="Layer_1" viewBox="0 0 512 512" xml:space="preserve"><g>	<g>		<g>			<path d="M17.86,178.601c9.864,0,17.86-7.997,17.86-17.86V35.721h125.018c9.864,0,17.86-7.997,17.86-17.86    c0-9.864-7.997-17.86-17.86-17.86H17.86C7.997,0,0,7.997,0,17.86v142.88C0,170.604,7.997,178.601,17.86,178.601z"></path>			<path d="M494.14,0H351.261c-9.864,0-17.86,7.997-17.86,17.86c0,9.864,7.997,17.86,17.86,17.86h125.018v125.02    c0,9.864,7.997,17.86,17.86,17.86c9.864,0,17.86-7.997,17.86-17.86V17.86C512,7.997,504.003,0,494.14,0z"></path>			<path d="M494.14,333.399c-9.864,0-17.86,7.997-17.86,17.86v125.02H351.261c-9.864,0-17.86,7.997-17.86,17.86    c0,9.864,7.997,17.86,17.86,17.86H494.14c9.864,0,17.86-7.997,17.86-17.86v-142.88C512,341.396,504.003,333.399,494.14,333.399z"></path>			<path d="M160.739,476.279H35.721v-125.02c0-9.864-7.997-17.86-17.86-17.86c-9.864,0-17.86,7.997-17.86,17.86v142.88    C0,504.003,7.997,512,17.86,512h142.879c9.864,0,17.86-7.997,17.86-17.86C178.6,484.276,170.603,476.279,160.739,476.279z"></path>			<path d="M191.386,255.125c-64.764,25.774-110.663,89.093-110.663,162.933c0,9.864,7.997,17.86,17.86,17.86h314.835    c9.864,0,17.86-7.997,17.86-17.86c0-73.84-45.899-137.158-110.663-162.933c22.342-18.581,36.595-46.572,36.595-77.833    c0-55.807-45.402-101.209-101.209-101.209s-101.209,45.402-101.209,101.209C154.791,208.553,169.043,236.544,191.386,255.125z     M394.42,400.197H117.58c8.796-68.549,67.517-121.695,138.42-121.695S385.624,331.647,394.42,400.197z M256,111.803    c36.11,0,65.488,29.378,65.488,65.488S292.11,242.78,256,242.78s-65.488-29.378-65.488-65.488S219.89,111.803,256,111.803z"></path>		</g>	</g></g></svg>